<svg width="588" height="667" viewBox="0 0 588 667" fill="none" xmlns="http://www.w3.org/2000/svg">
<path d="M500.569 661.405C495.526 661.405 491.437 657.339 491.437 652.324C491.437 647.308 495.526 643.243 500.569 643.243C505.612 643.243 509.701 647.308 509.701 652.324C509.701 657.323 505.612 661.405 500.569 661.405Z" stroke="#04D361" stroke-width="3" stroke-miterlimit="10" stroke-linecap="round" stroke-linejoin="round"/>
<path d="M494.269 658.888L487.811 665.294" stroke="#04D361" stroke-width="3" stroke-miterlimit="10" stroke-linecap="round" stroke-linejoin="round"/>
<path d="M329.217 2L319.609 11.5541" stroke="#04D361" stroke-width="3" stroke-miterlimit="10" stroke-linecap="round" stroke-linejoin="round"/>
<path d="M329.217 11.5541L319.609 2" stroke="#04D361" stroke-width="3" stroke-miterlimit="10" stroke-linecap="round" stroke-linejoin="round"/>
<path d="M315.461 576.763L305.854 586.317" stroke="#04D361" stroke-width="3" stroke-miterlimit="10" stroke-linecap="round" stroke-linejoin="round"/>
<path d="M315.461 586.317L305.854 576.763" stroke="#04D361" stroke-width="3" stroke-miterlimit="10" stroke-linecap="round" stroke-linejoin="round"/>
<path d="M15.4307 187.274L1.8441 187.274" stroke="#04D361" stroke-width="3" stroke-miterlimit="10" stroke-linecap="round" stroke-linejoin="round"/>
<path d="M8.63896 194.046L8.63896 180.52" stroke="#04D361" stroke-width="3" stroke-miterlimit="10" stroke-linecap="round" stroke-linejoin="round"/>
<path d="M412.866 138.422C408.316 138.422 404.609 134.752 404.609 130.211C404.609 125.686 408.3 122 412.866 122C417.416 122 421.123 125.67 421.123 130.211C421.107 134.752 417.416 138.422 412.866 138.422Z" stroke="#04D361" stroke-width="3" stroke-miterlimit="10" stroke-linecap="round" stroke-linejoin="round"/>
<path d="M577.743 345.169C573.193 345.169 569.486 341.499 569.486 336.958C569.486 332.434 573.177 328.747 577.743 328.747C582.293 328.747 586 332.418 586 336.958C585.984 341.499 582.293 345.169 577.743 345.169Z" stroke="#04D361" stroke-width="3" stroke-miterlimit="10" stroke-linecap="round" stroke-linejoin="round"/>
<path d="M58.5915 471.906C54.0414 471.906 50.3345 468.236 50.3345 463.695C50.3345 459.17 54.0255 455.484 58.5915 455.484C63.1416 455.484 66.8485 459.155 66.8485 463.695C66.8326 468.236 63.1416 471.906 58.5915 471.906Z" stroke="#04D361" stroke-width="3" stroke-miterlimit="10" stroke-linecap="round" stroke-linejoin="round"/>
<path d="M157.224 23.2467C157.224 24.8891 158.562 26.2205 160.214 26.2205C161.866 26.2205 163.204 24.8891 163.204 23.2467C163.204 21.6044 161.866 20.2729 160.214 20.2729C158.562 20.2729 157.224 21.6044 157.224 23.2467Z" fill="#9871F5"/>
<path d="M157.224 44.0199C157.224 45.6623 158.562 46.9937 160.214 46.9937C161.866 46.9937 163.204 45.6623 163.204 44.0199C163.204 42.3776 161.866 41.0461 160.214 41.0461C158.562 41.0461 157.224 42.3776 157.224 44.0199Z" fill="#9871F5"/>
<path d="M157.224 64.7744C157.224 66.4168 158.562 67.7482 160.214 67.7482C161.866 67.7482 163.204 66.4168 163.204 64.7744C163.204 63.1321 161.866 61.8007 160.214 61.8007C158.562 61.8007 157.224 63.1321 157.224 64.7744Z" fill="#9871F5"/>
<path d="M157.224 85.5447C157.224 87.1871 158.562 88.5185 160.214 88.5185C161.866 88.5185 163.204 87.1871 163.204 85.5447C163.204 83.9023 161.866 82.5709 160.214 82.5709C158.562 82.5709 157.224 83.9023 157.224 85.5447Z" fill="#9871F5"/>
<path d="M157.224 106.301C157.224 107.943 158.562 109.275 160.214 109.275C161.866 109.275 163.204 107.943 163.204 106.301C163.204 104.659 161.866 103.327 160.214 103.327C158.562 103.327 157.224 104.659 157.224 106.301Z" fill="#9871F5"/>
<path d="M157.224 127.071C157.224 128.714 158.562 130.045 160.214 130.045C161.866 130.045 163.204 128.714 163.204 127.071C163.204 125.429 161.866 124.098 160.214 124.098C158.562 124.098 157.224 125.429 157.224 127.071Z" fill="#9871F5"/>
<path d="M136.35 23.247C136.35 24.8894 137.689 26.2208 139.341 26.2208C140.992 26.2208 142.331 24.8894 142.331 23.247C142.331 21.6046 140.992 20.2732 139.341 20.2732C137.689 20.2732 136.35 21.6046 136.35 23.247Z" fill="#9871F5"/>
<path d="M136.35 44.0199C136.35 45.6623 137.689 46.9937 139.341 46.9937C140.992 46.9937 142.331 45.6623 142.331 44.0199C142.331 42.3776 140.992 41.0461 139.341 41.0461C137.689 41.0461 136.35 42.3776 136.35 44.0199Z" fill="#9871F5"/>
<path d="M136.35 64.7744C136.35 66.4168 137.689 67.7482 139.341 67.7482C140.992 67.7482 142.331 66.4168 142.331 64.7744C142.331 63.1321 140.992 61.8007 139.341 61.8007C137.689 61.8007 136.35 63.1321 136.35 64.7744Z" fill="#9871F5"/>
<path d="M136.35 85.5447C136.35 87.1871 137.689 88.5185 139.341 88.5185C140.992 88.5185 142.331 87.1871 142.331 85.5447C142.331 83.9023 140.992 82.5709 139.341 82.5709C137.689 82.5709 136.35 83.9023 136.35 85.5447Z" fill="#9871F5"/>
<path d="M136.35 106.301C136.35 107.943 137.689 109.275 139.341 109.275C140.992 109.275 142.331 107.943 142.331 106.301C142.331 104.659 140.992 103.327 139.341 103.327C137.689 103.327 136.35 104.659 136.35 106.301Z" fill="#9871F5"/>
<path d="M136.35 127.071C136.35 128.714 137.689 130.045 139.341 130.045C140.992 130.045 142.331 128.714 142.331 127.071C142.331 125.429 140.992 124.098 139.341 124.098C137.689 124.098 136.35 125.429 136.35 127.071Z" fill="#9871F5"/>
<path d="M115.461 23.247C115.461 24.8894 116.8 26.2208 118.452 26.2208C120.103 26.2208 121.442 24.8894 121.442 23.247C121.442 21.6046 120.103 20.2732 118.452 20.2732C116.8 20.2732 115.461 21.6046 115.461 23.247Z" fill="#9871F5"/>
<path d="M115.461 44.0199C115.461 45.6623 116.8 46.9937 118.452 46.9937C120.103 46.9937 121.442 45.6623 121.442 44.0199C121.442 42.3776 120.103 41.0461 118.452 41.0461C116.8 41.0461 115.461 42.3776 115.461 44.0199Z" fill="#9871F5"/>
<path d="M115.461 64.7744C115.461 66.4168 116.8 67.7482 118.452 67.7482C120.103 67.7482 121.442 66.4168 121.442 64.7744C121.442 63.1321 120.103 61.8007 118.452 61.8007C116.8 61.8007 115.461 63.1321 115.461 64.7744Z" fill="#9871F5"/>
<path d="M115.461 85.5447C115.461 87.1871 116.8 88.5185 118.452 88.5185C120.103 88.5185 121.442 87.1871 121.442 85.5447C121.442 83.9023 120.103 82.5709 118.452 82.5709C116.8 82.5709 115.461 83.9023 115.461 85.5447Z" fill="#9871F5"/>
<path d="M115.461 106.301C115.461 107.943 116.8 109.275 118.452 109.275C120.103 109.275 121.442 107.943 121.442 106.301C121.442 104.659 120.103 103.327 118.452 103.327C116.8 103.327 115.461 104.659 115.461 106.301Z" fill="#9871F5"/>
<path d="M115.461 127.071C115.461 128.714 116.8 130.045 118.452 130.045C120.103 130.045 121.442 128.714 121.442 127.071C121.442 125.429 120.103 124.098 118.452 124.098C116.8 124.098 115.461 125.429 115.461 127.071Z" fill="#9871F5"/>
<path d="M94.5883 23.247C94.5883 24.8894 95.9272 26.2208 97.5787 26.2208C99.2303 26.2208 100.569 24.8894 100.569 23.247C100.569 21.6046 99.2303 20.2732 97.5787 20.2732C95.9272 20.2732 94.5883 21.6046 94.5883 23.247Z" fill="#9871F5"/>
<path d="M94.5883 44.0199C94.5883 45.6623 95.9272 46.9937 97.5787 46.9937C99.2303 46.9937 100.569 45.6623 100.569 44.0199C100.569 42.3776 99.2303 41.0461 97.5787 41.0461C95.9272 41.0461 94.5883 42.3776 94.5883 44.0199Z" fill="#9871F5"/>
<path d="M94.5883 64.7744C94.5883 66.4168 95.9272 67.7482 97.5787 67.7482C99.2303 67.7482 100.569 66.4168 100.569 64.7744C100.569 63.1321 99.2303 61.8007 97.5787 61.8007C95.9272 61.8007 94.5883 63.1321 94.5883 64.7744Z" fill="#9871F5"/>
<path d="M94.5883 85.5447C94.5883 87.1871 95.9272 88.5185 97.5787 88.5185C99.2303 88.5185 100.569 87.1871 100.569 85.5447C100.569 83.9023 99.2303 82.5709 97.5787 82.5709C95.9272 82.5709 94.5883 83.9023 94.5883 85.5447Z" fill="#9871F5"/>
<path d="M94.5883 106.301C94.5883 107.943 95.9272 109.275 97.5787 109.275C99.2303 109.275 100.569 107.943 100.569 106.301C100.569 104.659 99.2303 103.327 97.5787 103.327C95.9272 103.327 94.5883 104.659 94.5883 106.301Z" fill="#9871F5"/>
<path d="M94.5883 127.071C94.5883 128.714 95.9272 130.045 97.5787 130.045C99.2303 130.045 100.569 128.714 100.569 127.071C100.569 125.429 99.2303 124.098 97.5787 124.098C95.9272 124.098 94.5883 125.429 94.5883 127.071Z" fill="#9871F5"/>
<path d="M497.788 477.706C497.788 479.348 499.127 480.679 500.779 480.679C502.43 480.679 503.769 479.348 503.769 477.706C503.769 476.063 502.43 474.732 500.779 474.732C499.127 474.732 497.788 476.063 497.788 477.706Z" fill="#9871F5"/>
<path d="M497.789 498.46C497.789 500.103 499.128 501.434 500.78 501.434C502.431 501.434 503.77 500.103 503.77 498.46C503.77 496.818 502.431 495.487 500.78 495.487C499.128 495.487 497.789 496.818 497.789 498.46Z" fill="#9871F5"/>
<path d="M497.789 519.23C497.789 520.872 499.128 522.204 500.78 522.204C502.431 522.204 503.77 520.872 503.77 519.23C503.77 517.588 502.431 516.256 500.78 516.256C499.128 516.256 497.789 517.588 497.789 519.23Z" fill="#9871F5"/>
<path d="M476.9 477.703C476.9 479.346 478.239 480.677 479.891 480.677C481.542 480.677 482.881 479.346 482.881 477.703C482.881 476.061 481.542 474.73 479.891 474.73C478.239 474.73 476.9 476.061 476.9 477.703Z" fill="#9871F5"/>
<path d="M476.9 498.46C476.9 500.103 478.239 501.434 479.891 501.434C481.542 501.434 482.881 500.103 482.881 498.46C482.881 496.818 481.542 495.487 479.891 495.487C478.239 495.487 476.9 496.818 476.9 498.46Z" fill="#9871F5"/>
<path d="M476.9 519.228C476.9 520.871 478.239 522.202 479.891 522.202C481.542 522.202 482.881 520.871 482.881 519.228C482.881 517.586 481.542 516.255 479.891 516.255C478.239 516.255 476.9 517.586 476.9 519.228Z" fill="#9871F5"/>
<path d="M571.498 111.974C571.498 113.617 572.837 114.948 574.488 114.948C576.14 114.948 577.479 113.617 577.479 111.974C577.479 110.332 576.14 109.001 574.488 109.001C572.837 109.001 571.498 110.332 571.498 111.974Z" fill="#9871F5"/>
<path d="M571.498 132.728C571.498 134.37 572.837 135.702 574.489 135.702C576.14 135.702 577.479 134.37 577.479 132.728C577.479 131.086 576.14 129.754 574.489 129.754C572.837 129.754 571.498 131.086 571.498 132.728Z" fill="#9871F5"/>
<path d="M571.498 153.5C571.498 155.143 572.837 156.474 574.489 156.474C576.14 156.474 577.479 155.143 577.479 153.5C577.479 151.858 576.14 150.527 574.489 150.527C572.837 150.527 571.498 151.858 571.498 153.5Z" fill="#9871F5"/>
<path d="M550.609 111.974C550.609 113.616 551.948 114.948 553.599 114.948C555.251 114.948 556.59 113.616 556.59 111.974C556.59 110.331 555.251 109 553.599 109C551.948 109 550.609 110.331 550.609 111.974Z" fill="#9871F5"/>
<path d="M550.609 132.73C550.609 134.372 551.948 135.704 553.599 135.704C555.251 135.704 556.59 134.372 556.59 132.73C556.59 131.088 555.251 129.756 553.599 129.756C551.948 129.756 550.609 131.088 550.609 132.73Z" fill="#9871F5"/>
<path d="M550.609 153.5C550.609 155.143 551.948 156.474 553.599 156.474C555.251 156.474 556.59 155.143 556.59 153.5C556.59 151.858 555.251 150.526 553.599 150.526C551.948 150.526 550.609 151.858 550.609 153.5Z" fill="#9871F5"/>
<path d="M164.711 662.983C164.711 664.626 166.049 665.957 167.701 665.957C169.353 665.957 170.691 664.626 170.691 662.983C170.691 661.341 169.353 660.01 167.701 660.01C166.049 660.01 164.711 661.341 164.711 662.983Z" fill="#9871F5"/>
<path d="M143.822 662.983C143.822 664.626 145.16 665.957 146.812 665.957C148.464 665.957 149.802 664.626 149.802 662.983C149.802 661.341 148.464 660.01 146.812 660.01C145.16 660.01 143.822 661.341 143.822 662.983Z" fill="#9871F5"/>
<path d="M122.948 662.983C122.948 664.626 124.287 665.957 125.939 665.957C127.59 665.957 128.929 664.626 128.929 662.983C128.929 661.341 127.59 660.01 125.939 660.01C124.287 660.01 122.948 661.341 122.948 662.983Z" fill="#9871F5"/>
<path d="M102.059 662.983C102.059 664.626 103.398 665.957 105.05 665.957C106.701 665.957 108.04 664.626 108.04 662.983C108.04 661.341 106.701 660.01 105.05 660.01C103.398 660.01 102.059 661.341 102.059 662.983Z" fill="#9871F5"/>
<path d="M81.1862 662.983C81.1862 664.626 82.5251 665.957 84.1766 665.957C85.8282 665.957 87.1671 664.626 87.1671 662.983C87.1671 661.341 85.8282 660.01 84.1767 660.01C82.5251 660.01 81.1862 661.341 81.1862 662.983Z" fill="#9871F5"/>
<path d="M60.2971 662.983C60.2971 664.626 61.636 665.957 63.2876 665.957C64.9392 665.957 66.2781 664.626 66.2781 662.983C66.2781 661.341 64.9392 660.01 63.2876 660.01C61.636 660.01 60.2971 661.341 60.2971 662.983Z" fill="#9871F5"/>
<path d="M39.4238 662.983C39.4238 664.626 40.7627 665.957 42.4143 665.957C44.0658 665.957 45.4047 664.626 45.4047 662.983C45.4047 661.341 44.0658 660.01 42.4143 660.01C40.7627 660.01 39.4238 661.341 39.4238 662.983Z" fill="#9871F5"/>
<path d="M164.711 642.212C164.711 643.854 166.049 645.186 167.701 645.186C169.353 645.186 170.691 643.854 170.691 642.212C170.691 640.57 169.353 639.238 167.701 639.238C166.049 639.238 164.711 640.57 164.711 642.212Z" fill="#9871F5"/>
<path d="M143.822 642.212C143.822 643.854 145.16 645.186 146.812 645.186C148.464 645.186 149.802 643.854 149.802 642.212C149.802 640.57 148.464 639.238 146.812 639.238C145.16 639.238 143.822 640.57 143.822 642.212Z" fill="#9871F5"/>
<path d="M122.948 642.212C122.948 643.854 124.287 645.186 125.939 645.186C127.59 645.186 128.929 643.854 128.929 642.212C128.929 640.57 127.59 639.238 125.939 639.238C124.287 639.238 122.948 640.57 122.948 642.212Z" fill="#9871F5"/>
<path d="M102.059 642.212C102.059 643.854 103.398 645.186 105.05 645.186C106.701 645.186 108.04 643.854 108.04 642.212C108.04 640.57 106.701 639.238 105.05 639.238C103.398 639.238 102.059 640.57 102.059 642.212Z" fill="#9871F5"/>
<path d="M81.1862 642.212C81.1862 643.854 82.5251 645.186 84.1766 645.186C85.8282 645.186 87.1671 643.854 87.1671 642.212C87.1671 640.57 85.8282 639.238 84.1766 639.238C82.5251 639.238 81.1862 640.57 81.1862 642.212Z" fill="#9871F5"/>
<path d="M60.2971 642.212C60.2971 643.854 61.636 645.186 63.2876 645.186C64.9391 645.186 66.278 643.854 66.278 642.212C66.278 640.57 64.9391 639.238 63.2876 639.238C61.636 639.238 60.2971 640.57 60.2971 642.212Z" fill="#9871F5"/>
<path d="M39.4238 642.212C39.4238 643.854 40.7627 645.186 42.4143 645.186C44.0658 645.186 45.4047 643.854 45.4047 642.212C45.4047 640.57 44.0658 639.238 42.4143 639.238C40.7627 639.238 39.4238 640.57 39.4238 642.212Z" fill="#9871F5"/>
<path d="M164.711 621.456C164.711 623.098 166.049 624.43 167.701 624.43C169.353 624.43 170.691 623.098 170.691 621.456C170.691 619.814 169.353 618.482 167.701 618.482C166.049 618.482 164.711 619.814 164.711 621.456Z" fill="#9871F5"/>
<path d="M143.822 621.456C143.822 623.098 145.16 624.43 146.812 624.43C148.464 624.43 149.802 623.098 149.802 621.456C149.802 619.814 148.464 618.482 146.812 618.482C145.16 618.482 143.822 619.814 143.822 621.456Z" fill="#9871F5"/>
<path d="M122.948 621.456C122.948 623.098 124.287 624.43 125.939 624.43C127.59 624.43 128.929 623.098 128.929 621.456C128.929 619.814 127.59 618.482 125.939 618.482C124.287 618.482 122.948 619.814 122.948 621.456Z" fill="#9871F5"/>
<path d="M102.059 621.456C102.059 623.098 103.398 624.43 105.05 624.43C106.701 624.43 108.04 623.098 108.04 621.456C108.04 619.814 106.701 618.482 105.05 618.482C103.398 618.482 102.059 619.814 102.059 621.456Z" fill="#9871F5"/>
<path d="M81.1862 621.456C81.1862 623.098 82.5251 624.43 84.1766 624.43C85.8282 624.43 87.1671 623.098 87.1671 621.456C87.1671 619.814 85.8282 618.482 84.1766 618.482C82.5251 618.482 81.1862 619.814 81.1862 621.456Z" fill="#9871F5"/>
<path d="M60.2971 621.456C60.2971 623.098 61.636 624.43 63.2876 624.43C64.9391 624.43 66.278 623.098 66.278 621.456C66.278 619.814 64.9391 618.482 63.2876 618.482C61.636 618.482 60.2971 619.814 60.2971 621.456Z" fill="#9871F5"/>
<path d="M39.4238 621.456C39.4238 623.098 40.7627 624.43 42.4143 624.43C44.0658 624.43 45.4047 623.098 45.4047 621.456C45.4047 619.814 44.0658 618.482 42.4143 618.482C40.7627 618.482 39.4238 619.814 39.4238 621.456Z" fill="#9871F5"/>
<path d="M164.708 600.686C164.708 602.328 166.047 603.66 167.699 603.66C169.351 603.66 170.689 602.328 170.689 600.686C170.689 599.043 169.351 597.712 167.699 597.712C166.047 597.712 164.708 599.043 164.708 600.686Z" fill="#9871F5"/>
<path d="M143.822 600.685C143.822 602.328 145.16 603.659 146.812 603.659C148.464 603.659 149.802 602.328 149.802 600.685C149.802 599.043 148.464 597.712 146.812 597.712C145.16 597.712 143.822 599.043 143.822 600.685Z" fill="#9871F5"/>
<path d="M122.948 600.685C122.948 602.328 124.287 603.659 125.939 603.659C127.59 603.659 128.929 602.328 128.929 600.685C128.929 599.043 127.59 597.712 125.939 597.712C124.287 597.712 122.948 599.043 122.948 600.685Z" fill="#9871F5"/>
<path d="M102.059 600.685C102.059 602.328 103.398 603.659 105.05 603.659C106.701 603.659 108.04 602.328 108.04 600.685C108.04 599.043 106.701 597.712 105.05 597.712C103.398 597.712 102.059 599.043 102.059 600.685Z" fill="#9871F5"/>
<path d="M81.1862 600.685C81.1862 602.328 82.5251 603.659 84.1766 603.659C85.8282 603.659 87.1671 602.328 87.1671 600.685C87.1671 599.043 85.8282 597.712 84.1766 597.712C82.5251 597.712 81.1862 599.043 81.1862 600.685Z" fill="#9871F5"/>
<path d="M60.2971 600.685C60.2971 602.328 61.636 603.659 63.2876 603.659C64.9391 603.659 66.278 602.328 66.278 600.685C66.278 599.043 64.9391 597.712 63.2876 597.712C61.636 597.712 60.2971 599.043 60.2971 600.685Z" fill="#9871F5"/>
<path d="M39.4238 600.685C39.4238 602.328 40.7627 603.659 42.4143 603.659C44.0658 603.659 45.4047 602.328 45.4047 600.685C45.4047 599.043 44.0658 597.712 42.4143 597.712C40.7627 597.712 39.4238 599.043 39.4238 600.685Z" fill="#9871F5"/>
<g clip-path="url(#clip0)">
<path d="M183.023 254.13H143.018C132.373 254.13 127 259.29 127 269.511V324.21C127 325.55 127.721 326.375 129.273 326.375H141.366C142.813 326.375 143.745 325.55 143.745 324.21V322.133C143.745 317.067 145.883 314.306 151.197 313.773H183.023C194.7 313.773 199.973 308.719 199.973 297.673V270.23C199.973 259.185 194.7 254.13 183.023 254.13ZM183.246 293.028C183.246 299.019 181.886 300.253 174.75 300.253H157.8C150.67 300.253 146.118 302.629 143.739 307.274V273.536C143.739 268.891 144.876 267.65 150.559 267.65H174.75C181.886 267.65 183.246 268.891 183.246 274.875V293.028Z" fill="white"/>
<path d="M238.32 284.37C229.121 284.37 225.19 289.015 225.19 296.86V324.414C225.19 325.655 224.569 326.374 223.122 326.374H212.165C210.718 326.374 209.998 325.655 209.998 324.414V274.05C209.998 272.81 210.718 272.084 212.165 272.084H221.364C222.711 272.084 223.432 272.81 223.432 274.05V282.176C225.19 275.472 230.258 272.061 239.251 272.061H242.972C244.313 272.061 245.034 272.786 245.034 274.027V282.41C245.034 283.75 244.313 284.37 242.972 284.37H238.32Z" fill="white"/>
<path d="M309.634 311.613C309.634 321.834 305.088 326.373 294.237 326.373H267.362C256.611 326.373 251.959 321.834 251.959 311.613V286.855C251.959 276.641 256.611 272.095 267.362 272.095H294.237C305.088 272.095 309.634 276.641 309.634 286.855V311.613ZM294.442 290.769C294.442 285.399 293.411 284.369 287.001 284.369H274.698C268.188 284.369 267.151 285.399 267.151 290.769V307.694C267.151 313.058 268.188 314.094 274.698 314.094H287.001C293.411 314.094 294.442 313.058 294.442 307.694V290.769Z" fill="white"/>
<path d="M324.932 284.37H319.759C318.411 284.37 317.69 283.75 317.69 282.41V274.05C317.69 272.81 318.411 272.085 319.759 272.085H324.926V265.38C324.932 255.16 330.305 250 340.95 250H353.664C355.111 250 355.732 250.726 355.732 251.96V260.32C355.732 261.665 355.111 262.28 353.664 262.28H346.95C341.261 262.28 340.124 263.52 340.124 268.165V272.085H353.664C355.111 272.085 355.732 272.81 355.732 274.05V282.41C355.732 283.75 355.111 284.37 353.664 284.37H340.124V324.415C340.124 325.655 339.404 326.374 337.956 326.374H327C325.553 326.374 324.932 325.655 324.932 324.415V284.37Z" fill="white"/>
<path d="M367.105 284.37H361.943C360.601 284.37 359.881 283.75 359.881 282.41V274.05C359.881 272.81 360.601 272.085 361.943 272.085H367.116V265.38C367.105 255.16 372.489 250 383.123 250H395.837C397.284 250 397.905 250.726 397.905 251.96V260.32C397.905 261.665 397.284 262.28 395.837 262.28H389.117C383.433 262.28 382.297 263.52 382.297 268.165V272.085H395.837C397.284 272.085 397.905 272.81 397.905 274.05V282.41C397.905 283.75 397.284 284.37 395.837 284.37H382.297V324.415C382.297 325.655 381.57 326.374 380.123 326.374H369.167C367.72 326.374 367.105 325.655 367.105 324.415V284.37Z" fill="white"/>
<path d="M444.103 347.429H421.569C411.445 347.429 407.103 343.51 407.103 333.804V332.775C407.073 332.498 407.106 332.218 407.2 331.955C407.293 331.692 407.444 331.454 407.642 331.258C407.84 331.062 408.08 330.913 408.344 330.822C408.608 330.731 408.889 330.701 409.166 330.733H419.712C421.159 330.733 421.88 331.458 421.88 332.798V333.313C421.88 335.378 423.022 336.203 425.295 336.203H438.32C444.519 336.203 446.071 334.658 446.071 329.393V313.112C443.693 317.757 439.146 320.132 432.01 320.132H421.464C410.713 320.132 405.955 315.593 405.955 305.372V274.05C405.941 273.78 405.986 273.51 406.086 273.258C406.186 273.007 406.34 272.78 406.537 272.593C406.733 272.406 406.968 272.264 407.224 272.176C407.481 272.089 407.753 272.057 408.023 272.085H419.085C420.427 272.085 421.153 272.81 421.153 274.05V301.482C421.153 306.847 422.29 307.882 428.7 307.882H436.556C443.376 307.882 446.065 305.092 446.065 299.417V274.05C446.065 272.81 446.786 272.085 448.134 272.085H459.201C459.466 272.059 459.733 272.093 459.983 272.183C460.233 272.272 460.46 272.416 460.648 272.604C460.835 272.792 460.979 273.02 461.068 273.27C461.158 273.52 461.19 273.786 461.164 274.05V331.02C461.158 341.848 455.369 347.429 444.103 347.429Z" fill="white"/>
</g>
<path d="M141.691 376.213C141.691 369.072 131.269 372.172 131.269 367.19C131.269 365.114 132.904 364.034 134.983 364.09C137.339 364.117 138.559 365.584 138.725 366.885H141.497C141.192 363.951 138.781 361.931 135.094 361.931C131.269 361.931 128.691 364.09 128.691 367.273C128.691 374.441 139.141 371.12 139.141 376.323C139.141 378.15 137.7 379.534 135.26 379.534C132.572 379.534 131.435 377.929 131.269 376.323H128.58C128.635 379.506 131.38 381.665 135.26 381.665C139.446 381.665 141.691 378.953 141.691 376.213Z" fill="#D4C2FF"/>
<path d="M158.875 366.304H156.352V374.635C156.352 377.901 154.606 379.506 152 379.506C149.45 379.506 147.759 377.929 147.759 374.857V366.304H145.265V375.189C145.265 379.534 148.009 381.693 151.501 381.693C153.525 381.693 155.382 380.807 156.352 379.23V381.472H158.875V366.304Z" fill="#D4C2FF"/>
<path d="M162.191 373.832C162.191 378.538 165.324 381.721 169.371 381.721C172.17 381.721 174.139 380.281 175.053 378.648V381.472H177.603V366.304H175.053V369.072C174.166 367.494 172.226 366.055 169.398 366.055C165.324 366.055 162.191 369.1 162.191 373.832ZM175.053 373.86C175.053 377.431 172.669 379.506 169.897 379.506C167.125 379.506 164.769 377.403 164.769 373.832C164.769 370.262 167.125 368.241 169.897 368.241C172.669 368.241 175.053 370.345 175.053 373.86Z" fill="#D4C2FF"/>
<path d="M191.779 369.1V366.304H189.256V388.668H191.779V378.676C192.721 380.226 194.689 381.721 197.461 381.721C201.536 381.721 204.668 378.538 204.668 373.832C204.668 369.1 201.536 366.055 197.461 366.055C194.689 366.055 192.693 367.494 191.779 369.1ZM202.09 373.832C202.09 377.403 199.734 379.506 196.934 379.506C194.19 379.506 191.779 377.431 191.779 373.86C191.779 370.345 194.19 368.241 196.934 368.241C199.734 368.241 202.09 370.262 202.09 373.832Z" fill="#D4C2FF"/>
<path d="M207.988 381.472H210.511V360.99H207.988V381.472Z" fill="#D4C2FF"/>
<path d="M213.868 373.832C213.868 378.538 217 381.721 221.047 381.721C223.847 381.721 225.815 380.281 226.729 378.648V381.472H229.28V366.304H226.729V369.072C225.842 367.494 223.902 366.055 221.075 366.055C217 366.055 213.868 369.1 213.868 373.832ZM226.729 373.86C226.729 377.431 224.345 379.506 221.574 379.506C218.802 379.506 216.445 377.403 216.445 373.832C216.445 370.262 218.802 368.241 221.574 368.241C224.345 368.241 226.729 370.345 226.729 373.86Z" fill="#D4C2FF"/>
<path d="M234.013 381.472H236.536V368.38H239.724V366.304H236.536V365.225C236.536 363.259 237.284 362.429 239.557 362.429V360.326C235.677 360.326 234.013 361.848 234.013 365.225V366.304H232.045V368.38H234.013V381.472Z" fill="#D4C2FF"/>
<path d="M257.079 373.86C257.079 369.072 253.725 366.055 249.401 366.055C245.104 366.055 241.722 369.072 241.722 373.86C241.722 378.676 244.993 381.721 249.29 381.721C253.614 381.721 257.079 378.676 257.079 373.86ZM244.3 373.86C244.3 370.041 246.712 368.241 249.373 368.241C251.978 368.241 254.501 370.041 254.501 373.86C254.501 377.707 251.923 379.506 249.29 379.506C246.656 379.506 244.3 377.707 244.3 373.86Z" fill="#D4C2FF"/>
<path d="M262.918 373.224C262.918 369.708 264.747 368.629 267.159 368.629H267.824V366.027C265.413 366.027 263.777 367.079 262.918 368.767V366.304H260.395V381.472H262.918V373.224Z" fill="#D4C2FF"/>
<path d="M292.662 381.472H295.157V372.532C295.157 368.186 292.468 366.027 289.003 366.027C286.675 366.027 284.513 367.217 283.626 369.404C282.628 367.134 280.549 366.027 278.054 366.027C276.058 366.027 274.256 366.885 273.259 368.491V366.304H270.736V381.472H273.259V373.113C273.259 369.847 275.005 368.214 277.555 368.214C280.05 368.214 281.713 369.791 281.713 372.891V381.472H284.208V373.113C284.208 369.847 285.954 368.214 288.504 368.214C290.999 368.214 292.662 369.791 292.662 372.891V381.472Z" fill="#D4C2FF"/>
<path d="M298.352 373.832C298.352 378.538 301.484 381.721 305.531 381.721C308.331 381.721 310.299 380.281 311.214 378.648V381.472H313.764V366.304H311.214V369.072C310.327 367.494 308.387 366.055 305.559 366.055C301.484 366.055 298.352 369.1 298.352 373.832ZM311.214 373.86C311.214 377.431 308.83 379.506 306.058 379.506C303.286 379.506 300.93 377.403 300.93 373.832C300.93 370.262 303.286 368.241 306.058 368.241C308.83 368.241 311.214 370.345 311.214 373.86Z" fill="#D4C2FF"/>
<path d="M324.474 373.832C324.474 378.538 327.607 381.721 331.681 381.721C334.453 381.721 336.422 380.309 337.336 378.621V381.472H339.886V360.99H337.336V369.016C336.283 367.273 334.093 366.055 331.709 366.055C327.607 366.055 324.474 369.1 324.474 373.832ZM337.336 373.86C337.336 377.431 334.952 379.506 332.18 379.506C329.408 379.506 327.052 377.403 327.052 373.832C327.052 370.262 329.408 368.241 332.18 368.241C334.952 368.241 337.336 370.345 337.336 373.86Z" fill="#D4C2FF"/>
<path d="M350.608 368.186C353.213 368.186 355.431 369.819 355.403 372.781H345.812C346.09 369.819 348.141 368.186 350.608 368.186ZM357.704 376.794H354.987C354.433 378.427 352.992 379.589 350.719 379.589C348.141 379.589 345.979 377.901 345.785 374.829H357.926C357.981 374.303 358.009 373.86 358.009 373.307C358.009 369.155 355.126 366.055 350.719 366.055C346.284 366.055 343.207 369.072 343.207 373.86C343.207 378.676 346.394 381.721 350.719 381.721C354.488 381.721 356.928 379.562 357.704 376.794Z" fill="#D4C2FF"/>
<path d="M135.593 403.553C138.199 403.553 140.416 405.186 140.388 408.147H130.797C131.075 405.186 133.126 403.553 135.593 403.553ZM142.689 412.16H139.973C139.418 413.793 137.977 414.956 135.704 414.956C133.126 414.956 130.964 413.268 130.77 410.195H142.911C142.966 409.669 142.994 409.227 142.994 408.673C142.994 404.521 140.111 401.421 135.704 401.421C131.269 401.421 128.192 404.438 128.192 409.227C128.192 414.043 131.38 417.087 135.704 417.087C139.474 417.087 141.913 414.928 142.689 412.16Z" fill="#D4C2FF"/>
<path d="M157.245 412.714C157.134 407.289 148.319 409.254 148.319 405.656C148.319 404.438 149.428 403.553 151.285 403.553C153.309 403.553 154.473 404.66 154.584 406.182H157.106C156.94 403.22 154.723 401.421 151.369 401.421C147.987 401.421 145.797 403.331 145.797 405.656C145.797 411.302 154.778 409.337 154.778 412.714C154.778 413.959 153.669 414.956 151.673 414.956C149.539 414.956 148.236 413.849 148.098 412.382H145.492C145.658 415.15 148.153 417.087 151.701 417.087C155.055 417.087 157.245 415.205 157.245 412.714Z" fill="#D4C2FF"/>
<path d="M161.36 412.686C161.36 415.731 162.885 416.838 165.574 416.838H167.847V414.707H165.989C164.437 414.707 163.883 414.181 163.883 412.686V403.746H167.847V401.67H163.883V397.851H161.36V401.67H159.392V403.746H161.36V412.686Z" fill="#D4C2FF"/>
<path d="M184.375 401.67H181.852V410.002C181.852 413.268 180.106 414.873 177.5 414.873C174.95 414.873 173.259 413.295 173.259 410.223V401.67H170.764V410.555C170.764 414.901 173.509 417.059 177.001 417.059C179.025 417.059 180.882 416.174 181.852 414.596V416.838H184.375V401.67Z" fill="#D4C2FF"/>
<path d="M187.691 409.199C187.691 413.904 190.823 417.087 194.898 417.087C197.67 417.087 199.638 415.676 200.553 413.987V416.838H203.103V396.356H200.553V404.383C199.5 402.639 197.31 401.421 194.926 401.421C190.823 401.421 187.691 404.466 187.691 409.199ZM200.553 409.227C200.553 412.797 198.169 414.873 195.397 414.873C192.625 414.873 190.269 412.769 190.269 409.199C190.269 405.628 192.625 403.608 195.397 403.608C198.169 403.608 200.553 405.711 200.553 409.227Z" fill="#D4C2FF"/>
<path d="M221.78 409.227C221.78 404.438 218.426 401.421 214.102 401.421C209.805 401.421 206.423 404.438 206.423 409.227C206.423 414.043 209.694 417.087 213.991 417.087C218.315 417.087 221.78 414.043 221.78 409.227ZM209.001 409.227C209.001 405.407 211.413 403.608 214.074 403.608C216.68 403.608 219.202 405.407 219.202 409.227C219.202 413.074 216.624 414.873 213.991 414.873C211.357 414.873 209.001 413.074 209.001 409.227Z" fill="#D4C2FF"/>
<path d="M236.018 412.714C235.907 407.289 227.092 409.254 227.092 405.656C227.092 404.438 228.201 403.553 230.058 403.553C232.082 403.553 233.246 404.66 233.357 406.182H235.879C235.713 403.22 233.495 401.421 230.141 401.421C226.76 401.421 224.57 403.331 224.57 405.656C224.57 411.302 233.551 409.337 233.551 412.714C233.551 413.959 232.442 414.956 230.446 414.956C228.312 414.956 227.009 413.849 226.871 412.382H224.265C224.431 415.15 226.926 417.087 230.474 417.087C233.828 417.087 236.018 415.205 236.018 412.714Z" fill="#D4C2FF"/>
<path d="M261.383 409.227C261.383 404.438 258.029 401.421 253.705 401.421C249.408 401.421 246.026 404.438 246.026 409.227C246.026 414.043 249.297 417.087 253.594 417.087C257.918 417.087 261.383 414.043 261.383 409.227ZM248.604 409.227C248.604 405.407 251.016 403.608 253.677 403.608C256.283 403.608 258.805 405.407 258.805 409.227C258.805 413.074 256.227 414.873 253.594 414.873C250.96 414.873 248.604 413.074 248.604 409.227Z" fill="#D4C2FF"/>
<path d="M275.815 416.838H278.31V407.898C278.31 403.553 275.621 401.394 272.101 401.394C270.049 401.394 268.22 402.252 267.222 403.829V401.67H264.7V416.838H267.222V408.452C267.222 405.186 268.996 403.58 271.574 403.58C274.124 403.58 275.815 405.158 275.815 408.258V416.838Z" fill="#D4C2FF"/>
<path d="M282.43 416.838H284.953V396.356H282.43V416.838Z" fill="#D4C2FF"/>
<path d="M289.252 416.838H291.774V401.67H289.252V416.838ZM290.555 399.207C291.469 399.207 292.218 398.46 292.218 397.491C292.218 396.522 291.469 395.775 290.555 395.775C289.584 395.775 288.836 396.522 288.836 397.491C288.836 398.46 289.584 399.207 290.555 399.207Z" fill="#D4C2FF"/>
<path d="M307.189 416.838H309.684V407.898C309.684 403.553 306.995 401.394 303.474 401.394C301.423 401.394 299.594 402.252 298.596 403.829V401.67H296.073V416.838H298.596V408.452C298.596 405.186 300.37 403.58 302.948 403.58C305.498 403.58 307.189 405.158 307.189 408.258V416.838Z" fill="#D4C2FF"/>
<path d="M320.263 403.553C322.868 403.553 325.086 405.186 325.058 408.147H315.467C315.744 405.186 317.796 403.553 320.263 403.553ZM327.359 412.16H324.642C324.088 413.793 322.646 414.956 320.373 414.956C317.796 414.956 315.633 413.268 315.439 410.195H327.581C327.636 409.669 327.664 409.227 327.664 408.673C327.664 404.521 324.781 401.421 320.373 401.421C315.938 401.421 312.862 404.438 312.862 409.227C312.862 414.043 316.049 417.087 320.373 417.087C324.143 417.087 326.583 414.928 327.359 412.16Z" fill="#D4C2FF"/>
<path d="M333.46 415.288C333.46 414.319 332.712 413.572 331.797 413.572C330.827 413.572 330.079 414.319 330.079 415.288C330.079 416.257 330.827 417.004 331.797 417.004C332.712 417.004 333.46 416.257 333.46 415.288Z" fill="#D4C2FF"/>
<defs>
<clipPath id="clip0">
<rect width="334.173" height="97.6421" fill="white" transform="translate(127 250)"/>
</clipPath>
</defs>
</svg>
