<svg width="851" height="531" viewBox="0 0 851 531" fill="none" xmlns="http://www.w3.org/2000/svg">
<path d="M6.96629 451.905C6.96629 447.354 12.1583 443.664 18.5625 443.664C24.9667 443.664 30.1587 447.354 30.1587 451.905C30.1587 456.456 24.9667 460.146 18.5625 460.146C12.1785 460.146 6.96629 456.456 6.96629 451.905Z" stroke="#04D361" stroke-width="3" stroke-miterlimit="10" stroke-linecap="round" stroke-linejoin="round"/>
<path d="M10.1808 446.22L2.00009 440.392" stroke="#04D361" stroke-width="3" stroke-miterlimit="10" stroke-linecap="round" stroke-linejoin="round"/>
<path d="M849 297.273L836.8 288.602" stroke="#04D361" stroke-width="3" stroke-miterlimit="10" stroke-linecap="round" stroke-linejoin="round"/>
<path d="M836.8 297.273L849 288.602" stroke="#04D361" stroke-width="3" stroke-miterlimit="10" stroke-linecap="round" stroke-linejoin="round"/>
<path d="M115.05 284.86L102.85 276.19" stroke="#04D361" stroke-width="3" stroke-miterlimit="10" stroke-linecap="round" stroke-linejoin="round"/>
<path d="M102.85 284.86L115.05 276.19" stroke="#04D361" stroke-width="3" stroke-miterlimit="10" stroke-linecap="round" stroke-linejoin="round"/>
<path d="M612.412 14.1049L612.412 1.84398" stroke="#04D361" stroke-width="3" stroke-miterlimit="10" stroke-linecap="round" stroke-linejoin="round"/>
<path d="M603.764 7.97583L621.038 7.97583" stroke="#04D361" stroke-width="3" stroke-miterlimit="10" stroke-linecap="round" stroke-linejoin="round"/>
<path d="M674.794 372.76C674.794 368.654 679.481 365.308 685.279 365.308C691.057 365.308 695.765 368.639 695.765 372.76C695.765 376.866 691.078 380.211 685.279 380.211C679.481 380.197 674.794 376.866 674.794 372.76Z" stroke="#04D361" stroke-width="3" stroke-miterlimit="10" stroke-linecap="round" stroke-linejoin="round"/>
<path d="M410.786 521.549C410.786 517.443 415.473 514.097 421.271 514.097C427.049 514.097 431.756 517.428 431.756 521.549C431.756 525.655 427.069 529 421.271 529C415.473 528.986 410.786 525.655 410.786 521.549Z" stroke="#04D361" stroke-width="3" stroke-miterlimit="10" stroke-linecap="round" stroke-linejoin="round"/>
<path d="M248.948 53.0543C248.948 48.9482 253.635 45.603 259.434 45.603C265.211 45.603 269.919 48.9339 269.919 53.0543C269.919 57.1604 265.232 60.5056 259.434 60.5056C253.635 60.4913 248.948 57.1604 248.948 53.0543Z" stroke="#04D361" stroke-width="3" stroke-miterlimit="10" stroke-linecap="round" stroke-linejoin="round"/>
<path d="M757.754 187.997C756.111 187.997 754.78 188.747 754.78 189.672C754.78 190.597 756.111 191.347 757.754 191.347C759.396 191.347 760.727 190.597 760.727 189.672C760.727 188.747 759.396 187.997 757.754 187.997Z" fill="#9871F5"/>
<path d="M736.98 187.997C735.338 187.997 734.006 188.747 734.006 189.672C734.006 190.597 735.338 191.347 736.98 191.347C738.623 191.347 739.954 190.597 739.954 189.672C739.954 188.747 738.623 187.997 736.98 187.997Z" fill="#9871F5"/>
<path d="M716.226 187.997C714.583 187.997 713.252 188.747 713.252 189.672C713.252 190.597 714.583 191.347 716.226 191.347C717.868 191.347 719.2 190.597 719.2 189.672C719.2 188.747 717.868 187.997 716.226 187.997Z" fill="#9871F5"/>
<path d="M695.456 187.997C693.813 187.997 692.482 188.747 692.482 189.672C692.482 190.597 693.813 191.347 695.456 191.347C697.098 191.347 698.429 190.597 698.429 189.672C698.429 188.747 697.098 187.997 695.456 187.997Z" fill="#9871F5"/>
<path d="M674.699 187.997C673.057 187.997 671.725 188.747 671.725 189.672C671.725 190.597 673.057 191.347 674.699 191.347C676.342 191.347 677.673 190.597 677.673 189.672C677.673 188.747 676.342 187.997 674.699 187.997Z" fill="#9871F5"/>
<path d="M653.929 187.997C652.286 187.997 650.955 188.747 650.955 189.672C650.955 190.597 652.286 191.347 653.929 191.347C655.571 191.347 656.903 190.597 656.903 189.672C656.903 188.747 655.571 187.997 653.929 187.997Z" fill="#9871F5"/>
<path d="M757.753 176.304C756.111 176.304 754.78 177.054 754.78 177.979C754.78 178.904 756.111 179.654 757.753 179.654C759.396 179.654 760.727 178.904 760.727 177.979C760.727 177.054 759.396 176.304 757.753 176.304Z" fill="#9871F5"/>
<path d="M736.98 176.304C735.338 176.304 734.006 177.054 734.006 177.979C734.006 178.904 735.338 179.654 736.98 179.654C738.623 179.654 739.954 178.904 739.954 177.979C739.954 177.054 738.623 176.304 736.98 176.304Z" fill="#9871F5"/>
<path d="M716.226 176.304C714.583 176.304 713.252 177.054 713.252 177.979C713.252 178.904 714.583 179.654 716.226 179.654C717.868 179.654 719.2 178.904 719.2 177.979C719.2 177.054 717.868 176.304 716.226 176.304Z" fill="#9871F5"/>
<path d="M695.456 176.304C693.813 176.304 692.482 177.054 692.482 177.979C692.482 178.904 693.813 179.654 695.456 179.654C697.098 179.654 698.429 178.904 698.429 177.979C698.429 177.054 697.098 176.304 695.456 176.304Z" fill="#9871F5"/>
<path d="M674.699 176.304C673.057 176.304 671.725 177.054 671.725 177.979C671.725 178.904 673.057 179.654 674.699 179.654C676.342 179.654 677.673 178.904 677.673 177.979C677.673 177.054 676.342 176.304 674.699 176.304Z" fill="#9871F5"/>
<path d="M653.929 176.304C652.286 176.304 650.955 177.054 650.955 177.979C650.955 178.904 652.286 179.654 653.929 179.654C655.571 179.654 656.903 178.904 656.903 177.979C656.903 177.054 655.571 176.304 653.929 176.304Z" fill="#9871F5"/>
<path d="M757.753 164.602C756.111 164.602 754.78 165.352 754.78 166.277C754.78 167.202 756.111 167.952 757.753 167.952C759.396 167.952 760.727 167.202 760.727 166.277C760.727 165.352 759.396 164.602 757.753 164.602Z" fill="#9871F5"/>
<path d="M736.98 164.602C735.338 164.602 734.006 165.352 734.006 166.277C734.006 167.202 735.338 167.952 736.98 167.952C738.623 167.952 739.954 167.202 739.954 166.277C739.954 165.352 738.623 164.602 736.98 164.602Z" fill="#9871F5"/>
<path d="M716.226 164.602C714.583 164.602 713.252 165.352 713.252 166.277C713.252 167.202 714.583 167.952 716.226 167.952C717.868 167.952 719.2 167.202 719.2 166.277C719.2 165.352 717.868 164.602 716.226 164.602Z" fill="#9871F5"/>
<path d="M695.456 164.602C693.813 164.602 692.482 165.352 692.482 166.277C692.482 167.202 693.813 167.952 695.456 167.952C697.098 167.952 698.429 167.202 698.429 166.277C698.429 165.352 697.098 164.602 695.456 164.602Z" fill="#9871F5"/>
<path d="M674.699 164.602C673.057 164.602 671.725 165.352 671.725 166.277C671.725 167.202 673.057 167.952 674.699 167.952C676.342 167.952 677.673 167.202 677.673 166.277C677.673 165.352 676.342 164.602 674.699 164.602Z" fill="#9871F5"/>
<path d="M653.929 164.602C652.286 164.602 650.955 165.352 650.955 166.277C650.955 167.202 652.286 167.952 653.929 167.952C655.571 167.952 656.903 167.202 656.903 166.277C656.903 165.352 655.571 164.602 653.929 164.602Z" fill="#9871F5"/>
<path d="M757.753 152.909C756.111 152.909 754.78 153.659 754.78 154.585C754.78 155.51 756.111 156.26 757.753 156.26C759.396 156.26 760.727 155.51 760.727 154.585C760.727 153.659 759.396 152.909 757.753 152.909Z" fill="#9871F5"/>
<path d="M736.98 152.909C735.338 152.909 734.006 153.659 734.006 154.585C734.006 155.51 735.338 156.26 736.98 156.26C738.623 156.26 739.954 155.51 739.954 154.585C739.954 153.659 738.623 152.909 736.98 152.909Z" fill="#9871F5"/>
<path d="M716.226 152.909C714.583 152.909 713.252 153.659 713.252 154.585C713.252 155.51 714.583 156.26 716.226 156.26C717.868 156.26 719.2 155.51 719.2 154.585C719.2 153.659 717.868 152.909 716.226 152.909Z" fill="#9871F5"/>
<path d="M695.456 152.909C693.813 152.909 692.482 153.659 692.482 154.585C692.482 155.51 693.813 156.26 695.456 156.26C697.098 156.26 698.429 155.51 698.429 154.585C698.429 153.659 697.098 152.909 695.456 152.909Z" fill="#9871F5"/>
<path d="M674.699 152.909C673.057 152.909 671.725 153.659 671.725 154.585C671.725 155.51 673.057 156.26 674.699 156.26C676.342 156.26 677.673 155.51 677.673 154.585C677.673 153.659 676.342 152.909 674.699 152.909Z" fill="#9871F5"/>
<path d="M653.929 152.909C652.286 152.909 650.955 153.659 650.955 154.585C650.955 155.51 652.286 156.26 653.929 156.26C655.571 156.26 656.903 155.51 656.903 154.585C656.903 153.659 655.571 152.909 653.929 152.909Z" fill="#9871F5"/>
<path d="M303.295 421.701C301.652 421.701 300.321 422.451 300.321 423.376C300.321 424.301 301.652 425.051 303.295 425.051C304.937 425.051 306.268 424.301 306.268 423.376C306.268 422.451 304.937 421.701 303.295 421.701Z" fill="#9871F5"/>
<path d="M282.54 421.702C280.897 421.702 279.566 422.452 279.566 423.377C279.566 424.302 280.897 425.052 282.54 425.052C284.182 425.052 285.513 424.302 285.513 423.377C285.513 422.452 284.182 421.702 282.54 421.702Z" fill="#9871F5"/>
<path d="M261.77 421.702C260.128 421.702 258.796 422.452 258.796 423.377C258.796 424.302 260.128 425.052 261.77 425.052C263.412 425.052 264.744 424.302 264.744 423.377C264.744 422.452 263.412 421.702 261.77 421.702Z" fill="#9871F5"/>
<path d="M303.297 410C301.654 410 300.323 410.75 300.323 411.675C300.323 412.6 301.654 413.35 303.297 413.35C304.939 413.35 306.271 412.6 306.271 411.675C306.271 410.75 304.939 410 303.297 410Z" fill="#9871F5"/>
<path d="M282.54 410C280.897 410 279.566 410.75 279.566 411.675C279.566 412.6 280.897 413.35 282.54 413.35C284.182 413.35 285.513 412.6 285.513 411.675C285.513 410.75 284.182 410 282.54 410Z" fill="#9871F5"/>
<path d="M261.772 410C260.129 410 258.798 410.75 258.798 411.675C258.798 412.6 260.129 413.35 261.772 413.35C263.414 413.35 264.745 412.6 264.745 411.675C264.745 410.75 263.414 410 261.772 410Z" fill="#9871F5"/>
<path d="M669.026 420.066C667.383 420.066 666.052 420.816 666.052 421.741C666.052 422.666 667.383 423.416 669.026 423.416C670.668 423.416 672 422.666 672 421.741C672 420.816 670.668 420.066 669.026 420.066Z" fill="#9871F5"/>
<path d="M648.272 420.066C646.63 420.066 645.298 420.816 645.298 421.741C645.298 422.666 646.63 423.417 648.272 423.417C649.915 423.417 651.246 422.666 651.246 421.741C651.246 420.816 649.915 420.066 648.272 420.066Z" fill="#9871F5"/>
<path d="M627.5 420.066C625.857 420.066 624.526 420.816 624.526 421.741C624.526 422.666 625.857 423.417 627.5 423.417C629.142 423.417 630.474 422.666 630.474 421.741C630.474 420.816 629.142 420.066 627.5 420.066Z" fill="#9871F5"/>
<path d="M669.026 408.364C667.384 408.364 666.053 409.114 666.053 410.039C666.053 410.965 667.384 411.715 669.026 411.715C670.669 411.715 672 410.965 672 410.039C672 409.114 670.669 408.364 669.026 408.364Z" fill="#9871F5"/>
<path d="M648.27 408.364C646.628 408.364 645.296 409.114 645.296 410.039C645.296 410.965 646.628 411.715 648.27 411.715C649.913 411.715 651.244 410.965 651.244 410.039C651.244 409.114 649.913 408.364 648.27 408.364Z" fill="#9871F5"/>
<path d="M627.5 408.364C625.858 408.364 624.526 409.114 624.526 410.039C624.526 410.965 625.858 411.715 627.5 411.715C629.142 411.715 630.474 410.965 630.474 410.039C630.474 409.114 629.142 408.364 627.5 408.364Z" fill="#9871F5"/>
<path d="M33.9741 192.19C32.3317 192.19 31.0003 192.94 31.0003 193.866C31.0003 194.791 32.3317 195.541 33.9741 195.541C35.6165 195.541 36.9479 194.791 36.9479 193.866C36.9479 192.94 35.6165 192.19 33.9741 192.19Z" fill="#9871F5"/>
<path d="M33.9742 180.489C32.3318 180.489 31.0003 181.239 31.0003 182.164C31.0003 183.089 32.3318 183.839 33.9742 183.839C35.6166 183.839 36.948 183.089 36.948 182.164C36.948 181.239 35.6166 180.489 33.9742 180.489Z" fill="#9871F5"/>
<path d="M33.9742 168.796C32.3318 168.796 31.0003 169.546 31.0003 170.471C31.0003 171.396 32.3318 172.146 33.9742 172.146C35.6166 172.146 36.948 171.396 36.948 170.471C36.948 169.546 35.6166 168.796 33.9742 168.796Z" fill="#9871F5"/>
<path d="M33.9742 157.094C32.3318 157.094 31.0003 157.844 31.0003 158.77C31.0003 159.695 32.3318 160.445 33.9742 160.445C35.6166 160.445 36.948 159.695 36.948 158.77C36.948 157.844 35.6166 157.094 33.9742 157.094Z" fill="#9871F5"/>
<path d="M33.9742 145.402C32.3318 145.402 31.0003 146.152 31.0003 147.077C31.0003 148.002 32.3318 148.752 33.9742 148.752C35.6166 148.752 36.948 148.002 36.948 147.077C36.948 146.152 35.6166 145.402 33.9742 145.402Z" fill="#9871F5"/>
<path d="M33.9742 133.7C32.3318 133.7 31.0003 134.45 31.0003 135.375C31.0003 136.3 32.3318 137.05 33.9742 137.05C35.6166 137.05 36.948 136.3 36.948 135.375C36.948 134.45 35.6166 133.7 33.9742 133.7Z" fill="#9871F5"/>
<path d="M33.9742 122.007C32.3318 122.007 31.0003 122.757 31.0003 123.682C31.0003 124.608 32.3318 125.358 33.9742 125.358C35.6166 125.358 36.948 124.608 36.948 123.682C36.948 122.757 35.6166 122.007 33.9742 122.007Z" fill="#9871F5"/>
<path d="M54.7454 192.19C53.103 192.19 51.7716 192.94 51.7716 193.866C51.7716 194.791 53.103 195.541 54.7454 195.541C56.3878 195.541 57.7192 194.791 57.7192 193.866C57.7192 192.94 56.3878 192.19 54.7454 192.19Z" fill="#9871F5"/>
<path d="M54.7454 180.489C53.103 180.489 51.7716 181.239 51.7716 182.164C51.7716 183.089 53.103 183.839 54.7454 183.839C56.3878 183.839 57.7192 183.089 57.7192 182.164C57.7192 181.239 56.3878 180.489 54.7454 180.489Z" fill="#9871F5"/>
<path d="M54.7454 168.796C53.103 168.796 51.7716 169.546 51.7716 170.471C51.7716 171.396 53.103 172.146 54.7454 172.146C56.3878 172.146 57.7192 171.396 57.7192 170.471C57.7192 169.546 56.3878 168.796 54.7454 168.796Z" fill="#9871F5"/>
<path d="M54.7454 157.094C53.103 157.094 51.7716 157.844 51.7716 158.77C51.7716 159.695 53.103 160.445 54.7454 160.445C56.3878 160.445 57.7192 159.695 57.7192 158.77C57.7192 157.844 56.3878 157.094 54.7454 157.094Z" fill="#9871F5"/>
<path d="M54.7454 145.402C53.103 145.402 51.7716 146.152 51.7716 147.077C51.7716 148.002 53.103 148.752 54.7454 148.752C56.3878 148.752 57.7192 148.002 57.7192 147.077C57.7192 146.152 56.3878 145.402 54.7454 145.402Z" fill="#9871F5"/>
<path d="M54.7454 133.7C53.103 133.7 51.7716 134.45 51.7716 135.375C51.7716 136.3 53.103 137.05 54.7454 137.05C56.3878 137.05 57.7192 136.3 57.7192 135.375C57.7192 134.45 56.3878 133.7 54.7454 133.7Z" fill="#9871F5"/>
<path d="M54.7454 122.007C53.103 122.007 51.7716 122.757 51.7716 123.682C51.7716 124.608 53.103 125.358 54.7454 125.358C56.3878 125.358 57.7192 124.608 57.7192 123.682C57.7192 122.757 56.3878 122.007 54.7454 122.007Z" fill="#9871F5"/>
<path d="M75.5014 192.19C73.859 192.19 72.5276 192.94 72.5276 193.866C72.5276 194.791 73.859 195.541 75.5014 195.541C77.1437 195.541 78.4752 194.791 78.4752 193.866C78.4752 192.94 77.1437 192.19 75.5014 192.19Z" fill="#9871F5"/>
<path d="M75.5014 180.489C73.859 180.489 72.5276 181.239 72.5276 182.164C72.5276 183.089 73.859 183.839 75.5014 183.839C77.1437 183.839 78.4752 183.089 78.4752 182.164C78.4752 181.239 77.1437 180.489 75.5014 180.489Z" fill="#9871F5"/>
<path d="M75.5014 168.796C73.859 168.796 72.5276 169.546 72.5276 170.471C72.5276 171.396 73.859 172.146 75.5014 172.146C77.1437 172.146 78.4752 171.396 78.4752 170.471C78.4752 169.546 77.1437 168.796 75.5014 168.796Z" fill="#9871F5"/>
<path d="M75.5014 157.094C73.859 157.094 72.5276 157.844 72.5276 158.77C72.5276 159.695 73.859 160.445 75.5014 160.445C77.1437 160.445 78.4752 159.695 78.4752 158.77C78.4752 157.844 77.1437 157.094 75.5014 157.094Z" fill="#9871F5"/>
<path d="M75.5014 145.402C73.859 145.402 72.5276 146.152 72.5276 147.077C72.5276 148.002 73.859 148.752 75.5014 148.752C77.1437 148.752 78.4752 148.002 78.4752 147.077C78.4752 146.152 77.1437 145.402 75.5014 145.402Z" fill="#9871F5"/>
<path d="M75.5014 133.7C73.859 133.7 72.5276 134.45 72.5276 135.375C72.5276 136.3 73.859 137.05 75.5014 137.05C77.1437 137.05 78.4752 136.3 78.4752 135.375C78.4752 134.45 77.1437 133.7 75.5014 133.7Z" fill="#9871F5"/>
<path d="M75.5014 122.007C73.859 122.007 72.5276 122.757 72.5276 123.682C72.5276 124.608 73.859 125.358 75.5014 125.358C77.1437 125.358 78.4752 124.608 78.4752 123.682C78.4752 122.757 77.1437 122.007 75.5014 122.007Z" fill="#9871F5"/>
<path d="M96.2716 192.188C94.6293 192.188 93.2978 192.938 93.2978 193.864C93.2978 194.789 94.6293 195.539 96.2716 195.539C97.914 195.539 99.2454 194.789 99.2454 193.864C99.2454 192.938 97.914 192.188 96.2716 192.188Z" fill="#9871F5"/>
<path d="M96.2721 180.489C94.6297 180.489 93.2983 181.239 93.2983 182.164C93.2983 183.089 94.6297 183.839 96.2721 183.839C97.9144 183.839 99.2458 183.089 99.2458 182.164C99.2458 181.239 97.9144 180.489 96.2721 180.489Z" fill="#9871F5"/>
<path d="M96.2721 168.796C94.6297 168.796 93.2983 169.546 93.2983 170.471C93.2983 171.396 94.6297 172.146 96.2721 172.146C97.9144 172.146 99.2458 171.396 99.2458 170.471C99.2458 169.546 97.9144 168.796 96.2721 168.796Z" fill="#9871F5"/>
<path d="M96.2721 157.094C94.6297 157.094 93.2983 157.844 93.2983 158.77C93.2983 159.695 94.6297 160.445 96.2721 160.445C97.9144 160.445 99.2458 159.695 99.2458 158.77C99.2458 157.844 97.9144 157.094 96.2721 157.094Z" fill="#9871F5"/>
<path d="M96.2721 145.402C94.6297 145.402 93.2983 146.152 93.2983 147.077C93.2983 148.002 94.6297 148.752 96.2721 148.752C97.9144 148.752 99.2458 148.002 99.2458 147.077C99.2458 146.152 97.9144 145.402 96.2721 145.402Z" fill="#9871F5"/>
<path d="M96.2721 133.7C94.6297 133.7 93.2983 134.45 93.2983 135.375C93.2983 136.3 94.6297 137.05 96.2721 137.05C97.9144 137.05 99.2458 136.3 99.2458 135.375C99.2458 134.45 97.9144 133.7 96.2721 133.7Z" fill="#9871F5"/>
<path d="M96.2721 122.007C94.6297 122.007 93.2983 122.757 93.2983 123.682C93.2983 124.608 94.6297 125.358 96.2721 125.358C97.9145 125.358 99.2459 124.608 99.2459 123.682C99.2459 122.757 97.9145 122.007 96.2721 122.007Z" fill="#9871F5"/>
<g clip-path="url(#clip0)">
<path d="M314.023 186.13H274.018C263.373 186.13 258 191.29 258 201.511V256.21C258 257.55 258.721 258.375 260.273 258.375H272.366C273.813 258.375 274.745 257.55 274.745 256.21V254.133C274.745 249.067 276.883 246.306 282.197 245.773H314.023C325.7 245.773 330.973 240.719 330.973 229.673V202.23C330.973 191.185 325.7 186.13 314.023 186.13ZM314.246 225.028C314.246 231.019 312.886 232.253 305.75 232.253H288.8C281.67 232.253 277.118 234.629 274.739 239.274V205.536C274.739 200.891 275.876 199.65 281.559 199.65H305.75C312.886 199.65 314.246 200.891 314.246 206.875V225.028Z" fill="white"/>
<path d="M369.32 216.37C360.121 216.37 356.19 221.015 356.19 228.86V256.414C356.19 257.655 355.569 258.374 354.122 258.374H343.165C341.718 258.374 340.998 257.655 340.998 256.414V206.05C340.998 204.81 341.718 204.084 343.165 204.084H352.364C353.711 204.084 354.432 204.81 354.432 206.05V214.176C356.19 207.472 361.258 204.061 370.251 204.061H373.972C375.313 204.061 376.034 204.786 376.034 206.027V214.41C376.034 215.75 375.313 216.37 373.972 216.37H369.32Z" fill="white"/>
<path d="M440.634 243.613C440.634 253.834 436.088 258.373 425.237 258.373H398.362C387.611 258.373 382.959 253.834 382.959 243.613V218.855C382.959 208.641 387.611 204.095 398.362 204.095H425.237C436.088 204.095 440.634 208.641 440.634 218.855V243.613ZM425.442 222.769C425.442 217.399 424.411 216.369 418.001 216.369H405.698C399.188 216.369 398.151 217.399 398.151 222.769V239.694C398.151 245.058 399.188 246.094 405.698 246.094H418.001C424.411 246.094 425.442 245.058 425.442 239.694V222.769Z" fill="white"/>
<path d="M455.932 216.37H450.759C449.411 216.37 448.69 215.75 448.69 214.41V206.05C448.69 204.81 449.411 204.085 450.759 204.085H455.926V197.38C455.932 187.16 461.305 182 471.95 182H484.664C486.111 182 486.732 182.726 486.732 183.96V192.32C486.732 193.665 486.111 194.28 484.664 194.28H477.95C472.261 194.28 471.124 195.52 471.124 200.165V204.085H484.664C486.111 204.085 486.732 204.81 486.732 206.05V214.41C486.732 215.75 486.111 216.37 484.664 216.37H471.124V256.415C471.124 257.655 470.404 258.374 468.956 258.374H458C456.553 258.374 455.932 257.655 455.932 256.415V216.37Z" fill="white"/>
<path d="M498.105 216.37H492.943C491.601 216.37 490.881 215.75 490.881 214.41V206.05C490.881 204.81 491.601 204.085 492.943 204.085H498.116V197.38C498.105 187.16 503.489 182 514.123 182H526.837C528.284 182 528.905 182.726 528.905 183.96V192.32C528.905 193.665 528.284 194.28 526.837 194.28H520.117C514.433 194.28 513.297 195.52 513.297 200.165V204.085H526.837C528.284 204.085 528.905 204.81 528.905 206.05V214.41C528.905 215.75 528.284 216.37 526.837 216.37H513.297V256.415C513.297 257.655 512.57 258.374 511.123 258.374H500.167C498.72 258.374 498.105 257.655 498.105 256.415V216.37Z" fill="white"/>
<path d="M575.103 279.429H552.569C542.445 279.429 538.103 275.51 538.103 265.804V264.775C538.073 264.498 538.106 264.218 538.2 263.955C538.293 263.692 538.444 263.454 538.642 263.258C538.84 263.062 539.08 262.913 539.344 262.822C539.608 262.731 539.889 262.701 540.166 262.733H550.712C552.159 262.733 552.88 263.458 552.88 264.798V265.313C552.88 267.378 554.022 268.203 556.295 268.203H569.32C575.519 268.203 577.071 266.658 577.071 261.393V245.112C574.693 249.757 570.146 252.132 563.01 252.132H552.464C541.713 252.132 536.955 247.593 536.955 237.372V206.05C536.941 205.78 536.986 205.51 537.086 205.258C537.186 205.007 537.34 204.78 537.537 204.593C537.733 204.406 537.968 204.264 538.224 204.176C538.481 204.089 538.753 204.057 539.023 204.085H550.085C551.427 204.085 552.153 204.81 552.153 206.05V233.482C552.153 238.847 553.29 239.882 559.7 239.882H567.556C574.376 239.882 577.065 237.092 577.065 231.417V206.05C577.065 204.81 577.786 204.085 579.134 204.085H590.201C590.466 204.059 590.733 204.093 590.983 204.183C591.233 204.272 591.46 204.416 591.648 204.604C591.835 204.792 591.979 205.02 592.068 205.27C592.158 205.52 592.19 205.786 592.164 206.05V263.02C592.158 273.848 586.369 279.429 575.103 279.429Z" fill="white"/>
</g>
<path d="M272.691 308.213C272.691 301.072 262.269 304.172 262.269 299.19C262.269 297.114 263.904 296.034 265.983 296.09C268.339 296.117 269.559 297.584 269.725 298.885H272.497C272.192 295.951 269.781 293.931 266.094 293.931C262.269 293.931 259.691 296.09 259.691 299.273C259.691 306.441 270.141 303.12 270.141 308.323C270.141 310.15 268.7 311.534 266.26 311.534C263.572 311.534 262.435 309.929 262.269 308.323H259.58C259.635 311.506 262.38 313.665 266.26 313.665C270.446 313.665 272.691 310.953 272.691 308.213Z" fill="#D4C2FF"/>
<path d="M289.875 298.304H287.352V306.635C287.352 309.901 285.606 311.506 283 311.506C280.45 311.506 278.759 309.929 278.759 306.857V298.304H276.265V307.189C276.265 311.534 279.009 313.693 282.502 313.693C284.525 313.693 286.382 312.807 287.352 311.23V313.472H289.875V298.304Z" fill="#D4C2FF"/>
<path d="M293.191 305.832C293.191 310.538 296.324 313.721 300.371 313.721C303.17 313.721 305.139 312.281 306.053 310.648V313.472H308.603V298.304H306.053V301.072C305.166 299.494 303.226 298.055 300.399 298.055C296.324 298.055 293.191 301.1 293.191 305.832ZM306.053 305.86C306.053 309.431 303.669 311.506 300.897 311.506C298.126 311.506 295.769 309.403 295.769 305.832C295.769 302.262 298.126 300.241 300.897 300.241C303.669 300.241 306.053 302.345 306.053 305.86Z" fill="#D4C2FF"/>
<path d="M322.779 301.1V298.304H320.256V320.668H322.779V310.676C323.721 312.226 325.689 313.721 328.461 313.721C332.536 313.721 335.668 310.538 335.668 305.832C335.668 301.1 332.536 298.055 328.461 298.055C325.689 298.055 323.693 299.494 322.779 301.1ZM333.09 305.832C333.09 309.403 330.734 311.506 327.934 311.506C325.19 311.506 322.779 309.431 322.779 305.86C322.779 302.345 325.19 300.241 327.934 300.241C330.734 300.241 333.09 302.262 333.09 305.832Z" fill="#D4C2FF"/>
<path d="M338.988 313.472H341.511V292.99H338.988V313.472Z" fill="#D4C2FF"/>
<path d="M344.868 305.832C344.868 310.538 348 313.721 352.047 313.721C354.847 313.721 356.815 312.281 357.729 310.648V313.472H360.28V298.304H357.729V301.072C356.842 299.494 354.902 298.055 352.075 298.055C348 298.055 344.868 301.1 344.868 305.832ZM357.729 305.86C357.729 309.431 355.346 311.506 352.574 311.506C349.802 311.506 347.445 309.403 347.445 305.832C347.445 302.262 349.802 300.241 352.574 300.241C355.346 300.241 357.729 302.345 357.729 305.86Z" fill="#D4C2FF"/>
<path d="M365.014 313.472H367.536V300.38H370.724V298.304H367.536V297.225C367.536 295.259 368.284 294.429 370.557 294.429V292.326C366.677 292.326 365.014 293.848 365.014 297.225V298.304H363.045V300.38H365.014V313.472Z" fill="#D4C2FF"/>
<path d="M388.079 305.86C388.079 301.072 384.725 298.055 380.401 298.055C376.104 298.055 372.722 301.072 372.722 305.86C372.722 310.676 375.993 313.721 380.29 313.721C384.614 313.721 388.079 310.676 388.079 305.86ZM375.3 305.86C375.3 302.041 377.712 300.241 380.373 300.241C382.979 300.241 385.501 302.041 385.501 305.86C385.501 309.707 382.923 311.506 380.29 311.506C377.656 311.506 375.3 309.707 375.3 305.86Z" fill="#D4C2FF"/>
<path d="M393.918 305.224C393.918 301.708 395.747 300.629 398.159 300.629H398.824V298.027C396.413 298.027 394.777 299.079 393.918 300.767V298.304H391.395V313.472H393.918V305.224Z" fill="#D4C2FF"/>
<path d="M423.662 313.472H426.157V304.532C426.157 300.186 423.468 298.027 420.003 298.027C417.675 298.027 415.513 299.217 414.626 301.404C413.628 299.134 411.549 298.027 409.054 298.027C407.058 298.027 405.256 298.885 404.259 300.491V298.304H401.736V313.472H404.259V305.113C404.259 301.847 406.005 300.214 408.555 300.214C411.05 300.214 412.713 301.791 412.713 304.891V313.472H415.208V305.113C415.208 301.847 416.954 300.214 419.504 300.214C421.999 300.214 423.662 301.791 423.662 304.891V313.472Z" fill="#D4C2FF"/>
<path d="M429.352 305.832C429.352 310.538 432.484 313.721 436.532 313.721C439.331 313.721 441.299 312.281 442.214 310.648V313.472H444.764V298.304H442.214V301.072C441.327 299.494 439.387 298.055 436.559 298.055C432.484 298.055 429.352 301.1 429.352 305.832ZM442.214 305.86C442.214 309.431 439.83 311.506 437.058 311.506C434.286 311.506 431.93 309.403 431.93 305.832C431.93 302.262 434.286 300.241 437.058 300.241C439.83 300.241 442.214 302.345 442.214 305.86Z" fill="#D4C2FF"/>
<path d="M455.474 305.832C455.474 310.538 458.607 313.721 462.682 313.721C465.453 313.721 467.422 312.309 468.336 310.621V313.472H470.886V292.99H468.336V301.016C467.283 299.273 465.093 298.055 462.709 298.055C458.607 298.055 455.474 301.1 455.474 305.832ZM468.336 305.86C468.336 309.431 465.952 311.506 463.18 311.506C460.409 311.506 458.052 309.403 458.052 305.832C458.052 302.262 460.409 300.241 463.18 300.241C465.952 300.241 468.336 302.345 468.336 305.86Z" fill="#D4C2FF"/>
<path d="M481.608 300.186C484.213 300.186 486.431 301.819 486.403 304.781H476.812C477.09 301.819 479.141 300.186 481.608 300.186ZM488.704 308.794H485.987C485.433 310.427 483.992 311.589 481.719 311.589C479.141 311.589 476.979 309.901 476.785 306.829H488.926C488.981 306.303 489.009 305.86 489.009 305.307C489.009 301.155 486.126 298.055 481.719 298.055C477.284 298.055 474.207 301.072 474.207 305.86C474.207 310.676 477.394 313.721 481.719 313.721C485.489 313.721 487.928 311.562 488.704 308.794Z" fill="#D4C2FF"/>
<path d="M266.593 335.553C269.199 335.553 271.416 337.186 271.388 340.147H261.798C262.075 337.186 264.126 335.553 266.593 335.553ZM273.689 344.16H270.973C270.418 345.793 268.977 346.956 266.704 346.956C264.126 346.956 261.964 345.268 261.77 342.195H273.911C273.966 341.669 273.994 341.227 273.994 340.673C273.994 336.521 271.111 333.421 266.704 333.421C262.269 333.421 259.192 336.438 259.192 341.227C259.192 346.043 262.38 349.087 266.704 349.087C270.474 349.087 272.913 346.928 273.689 344.16Z" fill="#D4C2FF"/>
<path d="M288.245 344.714C288.134 339.289 279.319 341.254 279.319 337.656C279.319 336.438 280.428 335.553 282.285 335.553C284.309 335.553 285.473 336.66 285.584 338.182H288.106C287.94 335.22 285.723 333.421 282.369 333.421C278.987 333.421 276.797 335.331 276.797 337.656C276.797 343.302 285.778 341.337 285.778 344.714C285.778 345.959 284.669 346.956 282.673 346.956C280.539 346.956 279.236 345.849 279.098 344.382H276.492C276.658 347.15 279.153 349.087 282.701 349.087C286.055 349.087 288.245 347.205 288.245 344.714Z" fill="#D4C2FF"/>
<path d="M292.36 344.686C292.36 347.731 293.885 348.838 296.574 348.838H298.847V346.707H296.989C295.437 346.707 294.883 346.181 294.883 344.686V335.746H298.847V333.67H294.883V329.851H292.36V333.67H290.392V335.746H292.36V344.686Z" fill="#D4C2FF"/>
<path d="M315.375 333.67H312.852V342.002C312.852 345.268 311.106 346.873 308.5 346.873C305.95 346.873 304.259 345.295 304.259 342.223V333.67H301.764V342.555C301.764 346.901 304.509 349.059 308.001 349.059C310.025 349.059 311.882 348.174 312.852 346.596V348.838H315.375V333.67Z" fill="#D4C2FF"/>
<path d="M318.691 341.199C318.691 345.904 321.823 349.087 325.898 349.087C328.67 349.087 330.638 347.676 331.553 345.987V348.838H334.103V328.356H331.553V336.383C330.5 334.639 328.31 333.421 325.926 333.421C321.823 333.421 318.691 336.466 318.691 341.199ZM331.553 341.227C331.553 344.797 329.169 346.873 326.397 346.873C323.625 346.873 321.269 344.769 321.269 341.199C321.269 337.628 323.625 335.608 326.397 335.608C329.169 335.608 331.553 337.711 331.553 341.227Z" fill="#D4C2FF"/>
<path d="M352.78 341.227C352.78 336.438 349.426 333.421 345.102 333.421C340.805 333.421 337.423 336.438 337.423 341.227C337.423 346.043 340.694 349.087 344.991 349.087C349.315 349.087 352.78 346.043 352.78 341.227ZM340.001 341.227C340.001 337.407 342.413 335.608 345.074 335.608C347.68 335.608 350.202 337.407 350.202 341.227C350.202 345.074 347.624 346.873 344.991 346.873C342.357 346.873 340.001 345.074 340.001 341.227Z" fill="#D4C2FF"/>
<path d="M367.018 344.714C366.907 339.289 358.092 341.254 358.092 337.656C358.092 336.438 359.201 335.553 361.058 335.553C363.082 335.553 364.246 336.66 364.357 338.182H366.879C366.713 335.22 364.496 333.421 361.141 333.421C357.76 333.421 355.57 335.331 355.57 337.656C355.57 343.302 364.551 341.337 364.551 344.714C364.551 345.959 363.442 346.956 361.446 346.956C359.312 346.956 358.009 345.849 357.871 344.382H355.265C355.431 347.15 357.926 349.087 361.474 349.087C364.828 349.087 367.018 347.205 367.018 344.714Z" fill="#D4C2FF"/>
<path d="M392.383 341.227C392.383 336.438 389.029 333.421 384.705 333.421C380.408 333.421 377.026 336.438 377.026 341.227C377.026 346.043 380.297 349.087 384.594 349.087C388.918 349.087 392.383 346.043 392.383 341.227ZM379.604 341.227C379.604 337.407 382.016 335.608 384.677 335.608C387.283 335.608 389.805 337.407 389.805 341.227C389.805 345.074 387.227 346.873 384.594 346.873C381.96 346.873 379.604 345.074 379.604 341.227Z" fill="#D4C2FF"/>
<path d="M406.815 348.838H409.31V339.898C409.31 335.553 406.621 333.394 403.101 333.394C401.049 333.394 399.22 334.252 398.222 335.829V333.67H395.7V348.838H398.222V340.452C398.222 337.186 399.996 335.58 402.574 335.58C405.124 335.58 406.815 337.158 406.815 340.258V348.838Z" fill="#D4C2FF"/>
<path d="M413.43 348.838H415.953V328.356H413.43V348.838Z" fill="#D4C2FF"/>
<path d="M420.252 348.838H422.774V333.67H420.252V348.838ZM421.555 331.207C422.469 331.207 423.218 330.46 423.218 329.491C423.218 328.522 422.469 327.775 421.555 327.775C420.584 327.775 419.836 328.522 419.836 329.491C419.836 330.46 420.584 331.207 421.555 331.207Z" fill="#D4C2FF"/>
<path d="M438.189 348.838H440.684V339.898C440.684 335.553 437.995 333.394 434.474 333.394C432.423 333.394 430.594 334.252 429.596 335.829V333.67H427.073V348.838H429.596V340.452C429.596 337.186 431.37 335.58 433.948 335.58C436.498 335.58 438.189 337.158 438.189 340.258V348.838Z" fill="#D4C2FF"/>
<path d="M451.263 335.553C453.868 335.553 456.086 337.186 456.058 340.147H446.467C446.744 337.186 448.796 335.553 451.263 335.553ZM458.359 344.16H455.642C455.088 345.793 453.647 346.956 451.374 346.956C448.796 346.956 446.634 345.268 446.439 342.195H458.581C458.636 341.669 458.664 341.227 458.664 340.673C458.664 336.521 455.781 333.421 451.374 333.421C446.938 333.421 443.862 336.438 443.862 341.227C443.862 346.043 447.049 349.087 451.374 349.087C455.143 349.087 457.583 346.928 458.359 344.16Z" fill="#D4C2FF"/>
<path d="M464.46 347.288C464.46 346.319 463.712 345.572 462.797 345.572C461.827 345.572 461.079 346.319 461.079 347.288C461.079 348.257 461.827 349.004 462.797 349.004C463.712 349.004 464.46 348.257 464.46 347.288Z" fill="#D4C2FF"/>
<defs>
<clipPath id="clip0">
<rect width="334.173" height="97.6421" fill="white" transform="translate(258 182)"/>
</clipPath>
</defs>
</svg>
